HIERARCHY
ROOT Hips
{
	OFFSET 0.000000 89.005402 0.000000
	CHANNELS 6 Xposition Yposition Zposition Xrotation Yrotation Zrotation
	JOINT Spine
	{
		OFFSET 0.116900 10.681000 0.373400
		CHANNELS 3 Xrotation Yrotation Zrotation
		JOINT Spine1
		{
			OFFSET 0.000000 13.840401 0.053500
			CHANNELS 3 Xrotation Yrotation Zrotation
			JOINT Spine2
			{
				OFFSET 0.000000 14.712700 -0.366200
				CHANNELS 3 Xrotation Yrotation Zrotation
				JOINT Neck
				{
					OFFSET 0.000000 35.415497 -3.314200
					CHANNELS 3 Xrotation Yrotation Zrotation
					JOINT Head
					{
						OFFSET 0.000000 16.899200 1.218300
						CHANNELS 3 Xrotation Yrotation Zrotation
						JOINT HeadTop_End
						{
							OFFSET 0.000000 22.206207 2.192500
							CHANNELS 3 Xrotation Yrotation Zrotation
							End Site
							{
								OFFSET 0.000000 22.314178 0.000000
							}
						}
					}
				}
				JOINT LeftShoulder
				{
					OFFSET 12.896400 26.716293 -4.548400
					CHANNELS 3 Xrotation Yrotation Zrotation
					JOINT LeftArm
					{
						OFFSET 19.027000 -4.857010 -1.718400
						CHANNELS 3 Xrotation Yrotation Zrotation
						JOINT LeftForeArm
						{
							OFFSET 24.179897 0.000000 0.000000
							CHANNELS 3 Xrotation Yrotation Zrotation
							JOINT LeftHand
							{
								OFFSET 27.156403 0.000000 0.000000
								CHANNELS 3 Xrotation Yrotation Zrotation
								JOINT LeftHandIndex1
								{
									OFFSET 16.441200 0.000000 0.000000
									CHANNELS 3 Xrotation Yrotation Zrotation
									JOINT LeftHandIndex2
									{
										OFFSET 4.821899 0.000000 0.000000
										CHANNELS 3 Xrotation Yrotation Zrotation
										JOINT LeftHandIndex3
										{
											OFFSET 6.386497 0.000000 0.000000
											CHANNELS 3 Xrotation Yrotation Zrotation
											JOINT LeftHandIndex4
											{
												OFFSET 5.188988 0.000000 0.000000
												CHANNELS 3 Xrotation Yrotation Zrotation
												End Site
												{
													OFFSET -0.178703 5.185913 0.000177
												}
											}
										}
									}
								}
								JOINT LeftHandThumb1
								{
									OFFSET 6.534897 -5.032593 5.900300
									CHANNELS 3 Xrotation Yrotation Zrotation
									JOINT LeftHandThumb2
									{
										OFFSET 3.818176 -2.204422 2.204423
										CHANNELS 3 Xrotation Yrotation Zrotation
										JOINT LeftHandThumb3
										{
											OFFSET 3.252098 -1.877594 1.877601
											CHANNELS 3 Xrotation Yrotation Zrotation
											JOINT LeftHandThumb4
											{
												OFFSET 5.251778 -3.032120 3.032117
												CHANNELS 3 Xrotation Yrotation Zrotation
												End Site
												{
													OFFSET 0.000023 6.780014 0.000000
												}
											}
										}
									}
								}
							}
						}
					}
				}
				JOINT RightShoulder
				{
					OFFSET -12.896300 26.716293 -4.548400
					CHANNELS 3 Xrotation Yrotation Zrotation
					JOINT RightArm
					{
						OFFSET -19.027000 -4.857010 -1.718400
						CHANNELS 3 Xrotation Yrotation Zrotation
						JOINT RightForeArm
						{
							OFFSET -24.179897 0.000000 0.000000
							CHANNELS 3 Xrotation Yrotation Zrotation
							JOINT RightHand
							{
								OFFSET -27.156403 0.000000 0.000000
								CHANNELS 3 Xrotation Yrotation Zrotation
								JOINT RightHandThumb1
								{
									OFFSET -6.591202 -4.852203 5.988100
									CHANNELS 3 Xrotation Yrotation Zrotation
									JOINT RightHandThumb2
									{
										OFFSET -3.818176 -2.204422 2.204423
										CHANNELS 3 Xrotation Yrotation Zrotation
										JOINT RightHandThumb3
										{
											OFFSET -3.252098 -1.877594 1.877601
											CHANNELS 3 Xrotation Yrotation Zrotation
											JOINT RightHandThumb4
											{
												OFFSET -5.251778 -3.032120 3.032117
												CHANNELS 3 Xrotation Yrotation Zrotation
												End Site
												{
													OFFSET -0.000023 6.780014 0.000000
												}
											}
										}
									}
								}
								JOINT RightHandIndex1
								{
									OFFSET -16.029404 0.000000 0.000000
									CHANNELS 3 Xrotation Yrotation Zrotation
									JOINT RightHandIndex2
									{
										OFFSET -5.213303 0.000000 0.000000
										CHANNELS 3 Xrotation Yrotation Zrotation
										JOINT RightHandIndex3
										{
											OFFSET -6.386528 0.000000 0.000000
											CHANNELS 3 Xrotation Yrotation Zrotation
											JOINT RightHandIndex4
											{
												OFFSET -5.189026 0.000000 0.000000
												CHANNELS 3 Xrotation Yrotation Zrotation
												End Site
												{
													OFFSET 0.236702 5.183624 0.001972
												}
											}
										}
									}
								}
							}
						}
					}
				}
			}
		}
	}
	JOINT LeftUpLeg
	{
		OFFSET 14.073000 -7.904099 -1.463000
		CHANNELS 3 Xrotation Yrotation Zrotation
		JOINT LeftLeg
		{
			OFFSET -0.109806 -34.073280 4.093200
			CHANNELS 3 Xrotation Yrotation Zrotation
			JOINT LeftFoot
			{
				OFFSET 0.109806 -29.899420 -6.319000
				CHANNELS 3 Xrotation Yrotation Zrotation
				JOINT LeftToeBase
				{
					OFFSET 1.551100 -14.988700 20.535801
					CHANNELS 3 Xrotation Yrotation Zrotation
					JOINT LeftToe_End
					{
						OFFSET 0.221200 0.570800 13.248301
						CHANNELS 3 Xrotation Yrotation Zrotation
						End Site
						{
							OFFSET 0.000000 13.262435 0.000000
						}
					}
				}
			}
		}
	}
	JOINT RightUpLeg
	{
		OFFSET -13.839300 -7.904099 -1.463000
		CHANNELS 3 Xrotation Yrotation Zrotation
		JOINT RightLeg
		{
			OFFSET 0.109694 -34.073219 4.093300
			CHANNELS 3 Xrotation Yrotation Zrotation
			JOINT RightFoot
			{
				OFFSET -0.109694 -29.899384 -6.319200
				CHANNELS 3 Xrotation Yrotation Zrotation
				JOINT RightToeBase
				{
					OFFSET -1.551100 -14.988700 20.535801
					CHANNELS 3 Xrotation Yrotation Zrotation
					JOINT RightToe_End
					{
						OFFSET -0.221200 0.570900 13.248299
						CHANNELS 3 Xrotation Yrotation Zrotation
						End Site
						{
							OFFSET 0.000000 13.262440 0.000000
						}
					}
				}
			}
		}
	}
}
MOTION
Frames: 8
Frame Time: 0.033333
-0.121568 86.569290 1.583509 3.816362 -3.707898 -0.276197 0.169177 0.326492 0.106521 0.511369 0.555630 -0.149995 0.508119 0.557001 -0.156049 -12.568406 -1.447529 2.637434 10.197547 3.163034 -2.584844 -0.000000 -0.000000 0.000000 1.604991 -11.385827 -9.553344 4.329738 -15.662805 -64.423055 0.000000 -12.874964 0.000004 1.693018 -1.937942 -8.457194 0.460230 4.491402 -23.662347 0.883084 3.094858 -31.844183 0.339540 1.967236 -19.583710 0.000001 -0.000002 -0.000003 0.699759 -6.020116 19.223916 19.074645 26.512428 -1.026341 3.271087 -0.981147 3.963645 -0.000001 -0.000000 0.000002 2.087498 14.855923 10.815235 -4.515511 3.403575 66.314580 0.000002 7.533705 -0.000008 10.827172 0.054053 8.057264 -13.495566 -11.552045 -5.371128 13.666541 -20.582683 -6.820351 3.162471 -4.141721 -22.215043 -0.000002 0.000001 -0.000001 0.246061 -3.262783 18.902308 0.589427 -2.269664 29.112633 0.172155 -1.255805 15.610703 0.000001 -0.000001 0.000000 -9.103741 12.208839 11.982026 11.450077 4.306054 2.076198 -5.224271 1.423308 -12.378504 0.143305 0.000296 -0.160816 0.000000 0.000000 -0.000000 -10.784754 -8.247957 -9.925892 9.140198 1.825859 -3.111579 -2.171434 -0.998515 12.410422 -0.000066 -0.000000 0.000004 0.000000 0.000001 -0.000000 
-0.220725 86.459381 1.552933 4.018741 -4.006097 -0.202017 0.148307 0.357022 0.097733 0.483468 0.603684 -0.108256 0.480252 0.605066 -0.114454 -12.374208 -1.433539 2.696423 9.640080 3.134539 -2.759822 -0.000000 0.000000 0.000000 1.614707 -11.159378 -9.626323 4.145109 -15.758935 -64.399852 0.000005 -12.812948 0.000003 1.664774 -1.980903 -8.351959 0.456875 4.485004 -23.679661 0.881815 3.092810 -31.820789 0.336940 1.959909 -19.507570 0.000000 -0.000002 0.000000 0.699763 -6.020117 19.223923 19.084868 26.540775 -1.040936 3.270146 -1.000150 3.983830 0.000002 -0.000001 0.000000 2.104557 14.807749 10.694367 -4.527212 3.352717 66.350240 0.000007 7.834509 -0.000010 10.789919 -0.000001 8.064154 -13.495566 -11.552045 -5.371129 13.686808 -20.660448 -6.790633 3.158539 -4.145354 -22.208184 0.000002 0.000003 0.000004 0.251312 -3.278291 19.262836 0.589068 -2.269018 29.103576 0.172586 -1.257367 15.630533 -0.000001 -0.000002 -0.000000 -9.336348 12.241670 12.112361 11.689497 4.492492 2.040160 -5.359941 1.467018 -12.703645 0.122333 0.000220 -0.137272 -0.000000 0.000000 -0.000000 -11.585807 -8.064833 -9.933653 10.115135 2.094099 -3.072250 -2.602825 -0.968921 12.238617 -0.024006 -0.000002 0.000003 -0.000000 -0.000001 -0.000000 
-0.392737 86.329498 1.534798 4.228047 -4.411498 -0.091585 0.155646 0.382971 0.080486 0.491781 0.645013 -0.072664 0.488614 0.646397 -0.079009 -11.831218 -1.397677 2.908272 7.914094 3.153043 -3.047573 -0.000000 0.000000 0.000000 1.624350 -10.935733 -9.675134 3.988940 -15.815646 -64.318655 -0.000000 -12.804554 -0.000005 1.684902 -1.962341 -8.308397 0.459736 4.480100 -23.645936 0.884328 3.096849 -31.867344 0.336460 1.958559 -19.493578 -0.000001 -0.000002 0.000001 0.699762 -6.020116 19.223923 19.084336 26.539357 -1.040181 3.269138 -1.022573 4.006912 0.000002 0.000002 0.000003 2.106351 14.827466 10.631053 -4.565618 3.337836 66.322653 -0.000001 8.262395 -0.000009 10.712617 0.021446 8.059327 -13.495567 -11.552046 -5.371128 13.728971 -20.819427 -6.730295 3.150652 -4.153904 -22.195231 0.000002 0.000000 -0.000001 0.236621 -3.325136 19.890817 0.601154 -2.290570 29.407284 0.172935 -1.258617 15.646524 0.000001 0.000001 0.000005 -9.574560 12.297182 12.277727 12.024369 4.683155 1.988925 -5.573797 1.525072 -13.004139 0.099769 0.000152 -0.111937 -0.000000 -0.000001 0.000000 -12.515940 -7.839248 -9.915333 11.316419 2.435355 -3.030049 -3.147027 -0.955502 11.989260 -0.000027 0.000004 0.000002 0.000000 0.000000 0.000000 
-0.658587 86.199257 1.548311 4.430995 -4.849288 0.025430 0.191681 0.377216 0.055717 0.536976 0.636325 -0.050682 0.533847 0.637699 -0.057004 -10.983951 -1.329779 3.245196 5.226154 3.216661 -3.405500 0.000000 0.000000 0.000000 1.626976 -10.837749 -9.682019 3.937474 -15.784962 -64.151193 0.000003 -12.813192 0.000005 1.682310 -1.987299 -8.311930 0.475437 4.484680 -23.619716 0.887355 3.101724 -31.923382 0.339731 1.967781 -19.589107 -0.000000 -0.000004 -0.000001 0.699755 -6.020118 19.223919 19.092592 26.562321 -1.051967 3.268403 -1.037919 4.023035 0.000001 0.000001 -0.000003 2.090935 14.895265 10.696161 -4.662600 3.375183 66.214921 -0.000006 8.699025 0.000005 10.629221 0.120391 7.882096 -13.495571 -11.552045 -5.371128 13.783135 -21.018406 -6.655547 3.141106 -4.166739 -22.178266 0.000001 -0.000002 -0.000001 0.233456 -3.298952 20.228592 0.611402 -2.308661 29.662969 0.173313 -1.259946 15.663465 -0.000001 -0.000002 -0.000003 -9.832247 12.312854 12.464337 12.480947 4.917773 1.992744 -5.863375 1.600719 -13.220386 0.118053 0.000190 -0.132402 -0.000000 0.000001 0.000000 -13.457175 -7.604021 -9.828994 12.703822 2.788231 -2.985910 -3.962430 -0.982672 11.654604 0.366619 -0.000011 0.000000 -0.000000 -0.000001 0.000000 
-1.002805 86.087715 1.610728 4.612552 -5.223145 0.118704 0.241917 0.342968 0.027515 0.600296 0.582505 -0.044965 0.597188 0.583853 -0.051083 -9.971263 -1.245302 3.632516 2.161573 3.242911 -3.816094 -0.000000 0.000000 -0.000000 1.619714 -10.899351 -9.673506 3.972502 -15.692576 -63.879891 -0.000004 -12.743540 -0.000001 1.676780 -2.108715 -8.326306 0.497528 4.494617 -23.642785 0.888701 3.103866 -31.947998 0.339949 1.968374 -19.595307 -0.000000 -0.000003 0.000000 0.699758 -6.020117 19.223923 19.109175 26.608264 -1.075610 3.267735 -1.044536 4.030584 -0.000003 -0.000004 -0.000003 2.077003 14.913937 10.847218 -4.787974 3.437803 66.121190 0.000001 9.061405 0.000015 10.447439 0.240967 7.455016 -13.495570 -11.552044 -5.371129 13.828243 -21.175815 -6.598831 3.134588 -4.182084 -22.158484 0.000005 0.000001 0.000001 0.259992 -3.144964 19.986194 0.613228 -2.311844 29.708044 0.173913 -1.262106 15.691127 0.000002 -0.000001 0.000001 -10.099399 12.245109 12.642414 13.024614 5.214770 2.106674 -6.195667 1.688588 -13.330998 0.143670 0.000309 -0.161297 -0.000000 -0.000000 -0.000000 -14.240189 -7.435360 -9.667423 14.020963 3.103703 -2.920242 -4.879299 -1.034548 11.248579 0.744558 0.000005 0.000001 0.000000 -0.000000 -0.000000 
-1.417917 85.986633 1.721187 4.774204 -5.545981 0.174843 0.296029 0.312932 0.005551 0.668263 0.535384 -0.043569 0.665178 0.536707 -0.049492 -8.928100 -1.166017 4.011414 -0.826916 3.201004 -4.290518 0.000000 0.000000 -0.000000 1.609755 -10.971469 -9.695144 4.002899 -15.590894 -63.506764 0.000000 -12.621719 0.000008 1.763115 -2.223934 -8.338494 0.523189 4.507706 -23.717904 0.892620 3.110146 -32.020671 0.333638 1.950578 -19.410959 0.000001 0.000002 0.000000 0.699757 -6.020116 19.223923 19.114769 26.623738 -1.083543 3.267872 -1.035106 4.020906 0.000002 0.000003 0.000000 2.072566 14.881623 10.986222 -4.848496 3.460852 66.109264 0.000003 9.456160 0.000014 10.144744 0.397546 6.987895 -13.495568 -11.552046 -5.371129 13.874717 -21.333732 -6.543295 3.128604 -4.202834 -22.112700 -0.000000 -0.000002 -0.000002 0.293131 -2.951557 19.666157 0.615955 -2.316627 29.775721 0.174850 -1.265425 15.733380 -0.000000 -0.000001 0.000002 -10.420176 12.151637 12.865199 13.724659 5.506481 2.266516 -6.613798 1.784243 -13.294302 0.160126 0.000381 -0.180106 -0.000000 -0.000001 -0.000000 -14.855880 -7.323584 -9.409170 15.182150 3.368024 -2.845894 -5.717275 -1.088494 10.785543 0.968917 -0.000004 -0.000001 0.000000 0.000000 -0.000000 
-1.917134 85.874313 1.852818 4.941878 -5.861585 0.181840 0.349406 0.301052 -0.000022 0.734807 0.516835 -0.032299 0.731754 0.518141 -0.038130 -7.979933 -1.094497 4.334850 -3.445245 3.150381 -4.751582 -0.000000 0.000000 -0.000000 1.603574 -10.935723 -9.755586 3.967578 -15.458041 -63.059810 0.000005 -12.587876 -0.000008 1.896023 -2.263229 -8.326956 0.545810 4.512848 -23.770750 0.901092 3.123616 -32.176178 0.331025 1.943140 -19.333863 0.000001 0.000003 0.000000 0.699762 -6.020114 19.223919 19.116371 26.628297 -1.085826 3.268927 -1.025608 4.010673 0.000002 0.000002 0.000001 2.062729 14.890036 11.113742 -4.790126 3.411492 66.103131 -0.000001 10.045808 0.000013 10.040608 0.571835 6.800601 -13.495572 -11.552046 -5.371127 13.936556 -21.545316 -6.467457 3.120108 -4.230334 -22.036000 -0.000003 0.000003 0.000004 0.322591 -2.754703 19.491465 0.620886 -2.325200 29.897265 0.175833 -1.268915 15.777954 -0.000000 -0.000002 0.000003 -10.906162 12.049831 13.200879 14.718006 5.703916 2.424725 -7.183394 1.906394 -13.079011 0.193413 0.000542 -0.218250 0.000000 0.000000 0.000000 -15.401692 -7.170906 -8.990935 16.256009 3.535119 -2.811852 -6.415991 -1.133548 10.283285 1.101485 -0.000004 -0.000000 -0.000000 0.000000 -0.000000 
-2.487865 85.730461 1.976797 5.120665 -6.114571 0.147286 0.411088 0.296259 0.000281 0.811743 0.509604 -0.022068 0.808742 0.510890 -0.027857 -7.310620 -1.031614 4.546576 -5.293577 3.150007 -5.056655 -0.000000 -0.000000 -0.000000 1.597740 -10.870220 -9.827514 3.865047 -15.257944 -62.564751 -0.000004 -12.753819 -0.000001 1.934419 -2.270304 -8.270946 0.563190 4.507289 -23.787664 0.909090 3.136272 -32.322631 0.335514 1.955883 -19.465795 0.000001 0.000003 0.000001 0.699766 -6.020118 19.223921 19.122363 26.644904 -1.094335 3.265782 -1.055033 4.041589 0.000001 -0.000001 -0.000002 2.046215 14.922102 11.281835 -4.651495 3.351874 66.021913 -0.000002 10.846649 -0.000002 10.385514 0.642048 6.890534 -13.495569 -11.552046 -5.371128 13.998735 -21.753111 -6.394512 3.112813 -4.257788 -21.985887 -0.000000 -0.000002 -0.000000 0.347326 -2.536181 19.236944 0.625822 -2.333754 30.018743 0.176517 -1.271341 15.808864 0.000000 0.000001 -0.000000 -11.572937 11.778227 13.558801 15.996704 5.966318 2.741490 -7.855234 2.045311 -12.852391 0.215558 0.000686 -0.244721 0.000000 -0.000001 -0.000000 -15.942049 -6.965237 -8.432730 17.313051 3.555013 -2.837184 -6.939560 -1.163703 9.772916 0.758457 0.000002 0.000003 0.000000 -0.000001 -0.000000 
